<?xml version="1.0" encoding="UTF-8" standalone="no"?>
<svg
   version="1.0"
   width="1246px"
   height="659px"
   viewBox="0 0 1246 659"
   preserveAspectRatio="xMidYMid meet"
   id="svg123"
   sodipodi:docname="ithra_logo.svg"
   inkscape:version="1.3.2 (091e20e, 2023-11-25, custom)"
   xmlns:inkscape="http://www.inkscape.org/namespaces/inkscape"
   xmlns:sodipodi="http://sodipodi.sourceforge.net/DTD/sodipodi-0.dtd"
   xmlns="http://www.w3.org/2000/svg"
   xmlns:svg="http://www.w3.org/2000/svg">
  <defs
     id="defs123" />
  <sodipodi:namedview
     id="namedview123"
     pagecolor="#ffffff"
     bordercolor="#000000"
     borderopacity="0.25"
     inkscape:showpageshadow="2"
     inkscape:pageopacity="0.0"
     inkscape:pagecheckerboard="0"
     inkscape:deskcolor="#d1d1d1"
     inkscape:zoom="0.35241839"
     inkscape:cx="1143.5272"
     inkscape:cy="472.44981"
     inkscape:window-width="1920"
     inkscape:window-height="1009"
     inkscape:window-x="-8"
     inkscape:window-y="-8"
     inkscape:window-maximized="1"
     inkscape:current-layer="svg123" />
  <g
     id="g123"
     transform="matrix(0.93794089,0,0,0.92551145,39.01891,22.997926)">
    <path
       d="m 443.9,536.65 c -1.8,-0.45 -1,-1.65 1.1,-1.65 1.65,0 2,0.15 2,1 0,1 -1,1.2 -3.1,0.65 z"
       id="path14"
       style="fill:#d9d9d9" />
    <path
       d="m 438.9,536.15 c -0.5,-0.1 -0.9,-0.55 -0.9,-0.95 0,-0.5 0.65,-0.7 2.25,-0.7 1.9,0 2.25,0.15 2.25,1 0,0.75 -0.3,1 -1.35,0.95 -0.8,-0.05 -1.8,-0.15 -2.25,-0.3 z"
       id="path15"
       style="fill:#d9d9d9" />
    <path
       d="m 516.75,521.5 c -3.45,-0.5 -7,-2.3 -8.75,-4.4 -2,-2.45 -2.65,-5.8 -2.4,-12.4 0.2,-4.5 0.45,-5.95 1.55,-8.3 l 1.3,-2.9 h 2.65 c 1.5,0 2.95,0.25 3.3,0.6 0.9,0.9 0.7,3.35 -0.45,6.2 -1.1,2.55 -1.1,2.6 -0.15,4.5 1.35,2.7 3.65,3.9 7.45,3.9 3.7,0 5.6,-0.75 7.25,-2.85 1.1,-1.35 1.25,-2.15 1.4,-5.95 0.1,-2.4 -0.05,-8.95 -0.35,-14.5 -0.3,-5.6 -0.4,-11.55 -0.25,-13.25 l 0.35,-3.05 2.85,-0.35 c 4.45,-0.5 5,-0.05 5,4.5 0,2.15 -0.2,3.75 -0.5,3.75 -0.6,0 -0.6,9.1 0,20.45 0.55,10.6 0,16.45 -1.7,19.05 -2,3 -4.95,4.45 -10.15,5 -4.85,0.55 -4.85,0.55 -8.4,0 z"
       id="path16"
       style="fill:#d9d9d9" />
    <path
       d="m 765.4,518.35 c -1.6,-1.45 -1.9,-2 -1.9,-3.75 0,-1.6 0.3,-2.25 1.3,-3.05 l 1.35,-1.05 h -2.95 c -3.9,0 -6.65,-0.8 -8.35,-2.4 -2.2,-2.1 -2.85,-4.2 -2.85,-9.4 0,-2.8 -0.2,-4.7 -0.5,-4.7 -0.8,0 -0.65,-23.6 0.15,-24.7 0.5,-0.7 1.25,-0.8 3.85,-0.7 l 3.25,0.15 0.25,12.75 c 0.25,11.75 0.35,12.85 1.25,14.1 1.95,2.65 6.15,2.35 8.15,-0.6 0.85,-1.3 1.1,-2.35 1.1,-5.1 0,-3.3 0.05,-3.45 1.4,-3.95 1.6,-0.65 5.6,-0.2 6.25,0.7 0.2,0.3 0.3,2.65 0.15,5.2 l -0.25,4.55 1.55,0.55 c 0.85,0.3 2.55,0.55 3.75,0.55 1.75,0 2.5,-0.3 4,-1.7 1.65,-1.5 1.85,-1.95 2.2,-5.25 0.2,-1.95 0.55,-3.75 0.7,-4.05 0.15,-0.25 1.6,-0.5 3.2,-0.5 3.85,0 4.25,0.5 3.95,5 -0.15,1.95 -0.1,3.65 0.1,3.75 0.2,0.15 2.15,-1.45 4.3,-3.5 4.75,-4.5 10.15,-8.3 13.95,-9.7 3.75,-1.4 9.25,-1.4 12.95,-0.05 5.6,2.1 6.95,4.15 7.3,11 0.25,4.5 0.3,4.75 1.45,4.9 1.9,0.3 3.5,-0.35 4.4,-1.75 0.8,-1.2 0.95,-3.05 1.15,-14.15 l 0.25,-12.75 3,-0.15 c 4.95,-0.25 4.65,-1.45 4.3,18.15 -0.3,16.95 -0.3,17 -1.55,19.2 -1.8,3.25 -3.8,4.2 -9.1,4.45 -4.65,0.25 -6.75,-0.3 -10,-2.5 -0.8,-0.55 -1.45,-0.7 -1.65,-0.4 -0.15,0.25 -1.8,0.95 -3.65,1.5 -6.5,2.05 -20.9,1.8 -28.25,-0.5 -3.05,-0.95 -3.1,-0.95 -4.15,0.05 -1.4,1.3 -4.05,1.9 -8.15,1.95 h -3.2 l 1.05,1.15 c 2.75,2.95 0.05,8.35 -4.2,8.35 -1.4,0 -2.3,-0.3 -2.95,-1 l -0.9,-1 -1.1,1 c -1.65,1.55 -4.15,1.3 -6.35,-0.65 z m 9.3,-8.15 c 0.75,-0.3 0.7,-0.45 -0.6,-1 -1.2,-0.5 -1.85,-0.5 -2.8,-0.05 l -1.2,0.6 1.3,0.55 c 0.75,0.35 1.6,0.5 1.85,0.4 0.3,-0.1 0.9,-0.35 1.45,-0.5 z m 44.55,-13.65 c 2.7,-0.75 3.8,-1.35 4.85,-2.65 0.75,-0.9 1.4,-1.9 1.4,-2.25 0,-0.85 -2.4,-2.55 -4.55,-3.25 -1.75,-0.5 -2.2,-0.4 -5.15,1.05 -4,1.95 -10.1,7.05 -9.2,7.65 1.25,0.75 9.1,0.4 12.65,-0.55 z"
       id="path17"
       style="fill:#d9d9d9" />
    <path
       d="m 694.8,510.95 c -4.7,-1.1 -7.2,-5.3 -6.65,-10.9 0.95,-9 6,-13.55 16.95,-15.3 1.7,-0.25 1.85,-0.4 2,-2.15 l 0.15,-1.85 h 3.75 3.75 l 0.25,7 c 0.3,8.9 0.75,9.75 4.85,9.75 2.45,0 2.7,-0.1 2.4,-0.85 -0.2,-0.5 -0.5,-2.5 -0.6,-4.5 -0.35,-4.8 0.85,-7.4 4.5,-9.75 2.3,-1.5 3,-1.65 6.85,-1.8 7,-0.3 11.65,2.05 14.05,7.15 1.1,2.35 1.3,9.85 0.4,13.5 -0.75,3 -3.75,6.3 -7.05,7.8 -2.55,1.15 -3.05,1.2 -14.9,1.2 -11.85,0 -12.3,-0.05 -14.1,-1.15 -1,-0.6 -1.9,-1.45 -2.05,-1.85 -0.2,-0.5 -0.8,-0.15 -2.2,1.25 -2.85,2.8 -7.15,3.65 -12.35,2.45 z m 10.85,-15 c 0.85,-0.9 1.35,-2 1.35,-2.95 0,-1.8 -0.1,-1.8 -3,-0.3 -2.75,1.4 -4.05,3.3 -3,4.55 0.95,1.15 2.9,0.6 4.65,-1.3 z m 30.7,-0.05 c 2.65,-2.45 2.95,-4.6 0.85,-6.5 -2.4,-2.15 -4.1,-2.05 -6.8,0.5 -1.7,1.55 -1.75,2.4 -0.3,5.4 1.1,2.25 1.2,2.3 3.05,2.05 1.1,-0.15 2.5,-0.8 3.2,-1.45 z"
       id="path18"
       style="fill:#d9d9d9" />
    <path
       d="M 546.25,510.05 C 540.2,508.45 539,504 539,483.2 c 0,-9.75 0.15,-13.25 0.65,-13.9 0.5,-0.7 1.25,-0.8 3.85,-0.7 l 3.25,0.15 0.25,12.75 c 0.25,13.2 0.45,14.4 2.5,15.5 0.85,0.45 6,0.75 6,0.3 0,-0.1 -0.35,-1 -0.75,-1.95 -0.85,-2.05 -1,-7.15 -0.25,-7.6 0.3,-0.15 0.5,-0.75 0.5,-1.25 0,-1.55 3.2,-4.3 6,-5.25 3.85,-1.3 10.8,-0.9 14.55,0.85 3.95,1.8 5.15,3.65 5.4,8.25 0.15,3 0,3.95 -0.9,5.4 l -1,1.75 h 3.15 c 3.1,0 3.25,-0.05 5.05,-2.1 l 1.9,-2.05 -0.2,-12.3 -0.2,-12.3 3.4,-0.15 c 2.45,-0.1 3.35,0 3.35,0.5 0.15,4 1,17.05 1.15,17.25 0.15,0.1 1.8,-0.8 3.7,-2.05 4.95,-3.2 7.7,-3.95 13.05,-3.7 5.9,0.3 8.95,1.8 11.1,5.55 1.3,2.3 1.5,3.05 1.5,6.6 0,2.2 -0.25,4.8 -0.5,5.75 -0.65,2.35 -3.25,6.45 -4.35,6.85 -0.5,0.2 -1.25,0.75 -1.65,1.25 -1.05,1.25 -5.15,2.7 -9.5,3.4 -5.65,0.9 -35.2,0.4 -39.25,-0.65 -2.7,-0.75 -3.25,-0.75 -5.5,-0.05 -2.8,0.85 -16.5,1.45 -19,0.75 z m 65.5,-14.1 c 2.15,-0.9 3.2,-1.65 3.95,-2.9 l 1,-1.7 -1.6,-1.4 c -2.1,-1.9 -4.55,-2.3 -7.4,-1.2 -2.3,0.9 -9.1,5.7 -10.95,7.75 l -1,1.1 6.5,-0.2 c 5.4,-0.2 7,-0.45 9.5,-1.45 z m -41.3,-1.7 c 0.85,-1 1.55,-2.2 1.55,-2.75 0,-0.95 -2.4,-3.05 -4.15,-3.65 -1.7,-0.65 -5.35,2.1 -5.35,4 0,0.4 1,1.7 2.25,2.95 2.55,2.55 3,2.5 5.7,-0.55 z"
       id="path19"
       style="fill:#d9d9d9" />
    <path
       d="m 631.3,505.4 c -0.8,-2.85 -1.3,-5.7 -1.2,-6.35 0.1,-0.9 1.35,-1.75 5.7,-3.95 3,-1.6 6.15,-3.3 6.95,-3.9 l 1.4,-1.05 -6.35,-4.4 -6.4,-4.4 0.2,-1.9 c 0.15,-1.7 0.05,-1.9 -1.1,-2.05 -1.15,-0.15 -1.25,-0.4 -1.4,-2.75 -0.15,-2.2 0,-2.65 0.85,-3.15 0.8,-0.4 1.05,-1.05 1.05,-2.75 0,-3.05 0.35,-3.65 2.65,-4.85 1.65,-0.85 2.6,-0.95 4.95,-0.7 4.5,0.45 5,0.85 4.8,3.95 l -0.15,2.6 -2.5,0.3 -2.5,0.3 2.6,0.05 c 3.8,0.15 4.15,0.35 4.15,2.95 0,3.95 -0.35,4.2 -5.65,3.95 -4.55,-0.25 -4.55,-0.25 -1.15,0.25 2.95,0.4 3.9,0.8 7.2,3.2 2.65,1.9 3.95,2.6 4.35,2.2 0.3,-0.3 0.5,-3.2 0.55,-6.85 0,-3.5 0.1,-6.65 0.1,-7 0.1,-0.45 1.05,-0.6 3.75,-0.5 l 3.6,0.15 0.15,6.6 c 0.1,4.45 -0.1,7.65 -0.6,9.75 l -0.7,3.15 2.4,2.5 c 3.45,3.7 4,5 4,9.85 0,4.85 -0.8,6.55 -3.8,8.45 -1.9,1.15 -2.3,1.2 -14.25,1.35 l -12.3,0.2 z m 21,-8.5 c 0.15,-0.25 -0.1,-0.9 -0.55,-1.4 -0.85,-0.95 -0.9,-0.95 -2.6,0.35 -1.45,1.15 -1.6,1.4 -0.9,1.65 1.15,0.4 3.7,0 4.05,-0.6 z"
       id="path20"
       style="fill:#d9d9d9" />
    <path
       d="m 665.8,492.65 c -0.1,-9.85 -0.35,-19 -0.55,-20.35 -0.45,-3.1 0.3,-3.8 4.25,-3.8 4.85,0 4.55,-1.6 4.4,21.5 l -0.15,20.25 -3.85,0.15 -3.9,0.15 z"
       id="path21"
       style="fill:#d9d9d9" />
    <path
       d="m 1034,489.95 c 0,-0.85 0.4,-0.95 3.25,-0.95 2.55,0 3.25,0.15 3.25,0.75 0,0.4 -0.3,0.75 -0.6,0.8 -0.35,0 -1.85,0.1 -3.25,0.15 -2.3,0.15 -2.65,0.05 -2.65,-0.75 z"
       id="path22"
       style="fill:#d9d9d9" />
    <path
       d="m 1041.9,490.6 c -1.7,-0.35 -1,-1.6 0.85,-1.6 1.15,0 1.75,0.25 1.75,0.7 0,0.75 -1.25,1.2 -2.6,0.9 z"
       id="path23"
       style="fill:#d9d9d9" />
    <path
       d="m 1045.85,490.6 c -0.45,-0.1 -0.85,-0.5 -0.85,-0.9 0,-0.55 0.85,-0.7 3.75,-0.7 3,0 3.75,0.15 3.75,0.75 0,0.4 -0.3,0.75 -0.6,0.8 -2.45,0.15 -5.35,0.15 -6.05,0.05 z"
       id="path24"
       style="fill:#d9d9d9" />
    <path
       d="m 1053.9,490.6 c -1.7,-0.35 -1,-1.6 0.85,-1.6 1.15,0 1.75,0.25 1.75,0.7 0,0.75 -1.25,1.2 -2.6,0.9 z"
       id="path25"
       style="fill:#d9d9d9" />
    <path
       d="m 1057.9,490.6 c -1.7,-0.35 -1,-1.6 0.85,-1.6 1.15,0 1.75,0.25 1.75,0.7 0,0.75 -1.25,1.2 -2.6,0.9 z"
       id="path26"
       style="fill:#d9d9d9" />
    <path
       d="m 1065.9,490.6 c -1.7,-0.35 -1,-1.6 0.85,-1.6 1.15,0 1.75,0.25 1.75,0.7 0,0.75 -1.25,1.2 -2.6,0.9 z"
       id="path27"
       style="fill:#d9d9d9" />
    <path
       d="m 1077.9,490.6 c -1.7,-0.35 -1,-1.6 0.85,-1.6 1.15,0 1.75,0.25 1.75,0.7 0,0.75 -1.25,1.2 -2.6,0.9 z"
       id="path28"
       style="fill:#d9d9d9" />
    <path
       d="m 1089.9,490.6 c -1.7,-0.35 -1,-1.6 0.85,-1.6 1.15,0 1.75,0.25 1.75,0.7 0,0.75 -1.25,1.2 -2.6,0.9 z"
       id="path29"
       style="fill:#d9d9d9" />
    <path
       d="m 1101.9,490.6 c -1.7,-0.35 -1,-1.6 0.85,-1.6 1.15,0 1.75,0.25 1.75,0.7 0,0.75 -1.25,1.2 -2.6,0.9 z"
       id="path30"
       style="fill:#d9d9d9" />
    <path
       d="m 1113.9,490.6 c -1.7,-0.35 -1,-1.6 0.85,-1.6 1.15,0 1.75,0.25 1.75,0.7 0,0.75 -1.25,1.2 -2.6,0.9 z"
       id="path31"
       style="fill:#d9d9d9" />
    <path
       d="m 1125.9,490.6 c -1.7,-0.35 -1,-1.6 0.85,-1.6 1.15,0 1.75,0.25 1.75,0.7 0,0.75 -1.25,1.2 -2.6,0.9 z"
       id="path32"
       style="fill:#d9d9d9" />
    <path
       d="m 1137.9,490.6 c -1.7,-0.35 -1,-1.6 0.85,-1.6 1.15,0 1.75,0.25 1.75,0.7 0,0.75 -1.25,1.2 -2.6,0.9 z"
       id="path33"
       style="fill:#d9d9d9" />
    <path
       d="m 1149.9,490.6 c -1.7,-0.35 -1,-1.6 0.85,-1.6 1.15,0 1.75,0.25 1.75,0.7 0,0.75 -1.25,1.2 -2.6,0.9 z"
       id="path34"
       style="fill:#d9d9d9" />
    <path
       d="m 1161.9,490.6 c -1.7,-0.35 -1,-1.6 0.85,-1.6 1.15,0 1.75,0.25 1.75,0.7 0,0.75 -1.25,1.2 -2.6,0.9 z"
       id="path35"
       style="fill:#d9d9d9" />
    <path
       d="m 1173.9,490.6 c -1.7,-0.35 -1,-1.6 0.85,-1.6 1.15,0 1.75,0.25 1.75,0.7 0,0.75 -1.25,1.2 -2.6,0.9 z"
       id="path36"
       style="fill:#d9d9d9" />
    <path
       d="m 1185.9,490.6 c -1.7,-0.35 -1,-1.6 0.85,-1.6 1.15,0 1.75,0.25 1.75,0.7 0,0.75 -1.25,1.2 -2.6,0.9 z"
       id="path37"
       style="fill:#d9d9d9" />
    <path
       d="m 1193.85,490.6 c -0.45,-0.1 -0.85,-0.5 -0.85,-0.9 0,-0.6 3.05,-0.7 20.25,-0.7 17.15,0 20.25,0.1 20.25,0.7 0,0.4 -0.7,0.85 -1.5,1.05 -1.45,0.3 -36.35,0.15 -38.15,-0.15 z"
       id="path38"
       style="fill:#d9d9d9" />
    <path
       d="m 563.9,477.8 c -2.6,-2.3 -2.6,-4.05 0.1,-6.5 2.1,-1.9 4.1,-2.3 6.1,-1.25 3.95,2.1 4.5,4.75 1.55,7.65 -2.55,2.45 -5.05,2.5 -7.75,0.1 z"
       id="path39"
       style="fill:#d9d9d9" />
    <path
       d="m 698.85,477.95 c -1.6,-1.3 -1.85,-1.8 -1.85,-3.6 0,-1.85 0.25,-2.25 1.95,-3.45 2.2,-1.6 5.5,-1.9 6.55,-0.65 0.55,0.65 0.75,0.65 1.65,0 3.1,-2.15 8.35,0.4 8.35,4 0,3.7 -5.5,6.75 -8.05,4.45 -0.8,-0.75 -1,-0.75 -2.05,0 -1.85,1.3 -4.4,1 -6.55,-0.75 z"
       id="path40"
       style="fill:#d9d9d9" />
    <path
       d="m 731.1,477.85 c -1.25,-1.3 -1.6,-2.1 -1.6,-3.6 0,-1.7 0.3,-2.2 1.7,-3.35 2.3,-1.85 4.85,-1.85 7.15,-0.1 1.45,1.1 1.65,1.5 1.65,3.6 0,2.1 -0.2,2.5 -1.7,3.75 -2.55,1.95 -5.1,1.85 -7.2,-0.3 z"
       id="path41"
       style="fill:#d9d9d9" />
    <path
       d="m 806.25,477.95 c -2.5,-2.2 -2.45,-4.55 0.15,-7.1 2.55,-2.5 4.4,-2.5 7.1,-0.05 1.65,1.5 2,2.15 2,3.7 0,2.6 -2.65,5 -5.5,5 -1.5,0 -2.4,-0.4 -3.75,-1.55 z"
       id="path42"
       style="fill:#d9d9d9" />
    <path
       d="m 1243.35,454.65 c -0.2,-0.15 -0.35,-0.95 -0.35,-1.7 v -1.4 l 1.5,0.85 c 1.8,1.05 2,2.6 0.35,2.6 -0.65,0 -1.35,-0.15 -1.5,-0.35 z"
       id="path43"
       style="fill:#d9d9d9" />
    <path
       d="m 366.45,291.9 c 0,-0.1 -0.3,-2.3 -0.65,-4.9 -1.1,-7.75 -3.75,-13.15 -7.75,-15.85 -3.45,-2.35 -10.1,-4.15 -18,-4.95 l -3.55,-0.35 v -1.9 c 0,-2.2 0,-2.15 5.5,-2.7 8.2,-0.8 13.85,-2.75 17.45,-6.05 3.55,-3.15 5.55,-8.15 6.55,-16.1 l 0.6,-5.1 h 2.45 2.45 v 1.9 c 0.05,5.25 2.35,13.35 4.8,17.05 2.75,4.1 9.5,7 18.9,8.15 l 5.3,0.6 v 2.15 c 0,1.9 -0.15,2.15 -1.15,2.15 -2.05,0 -10.5,1.55 -13.9,2.55 -7.6,2.2 -11.35,7.35 -13.5,18.6 -0.35,1.85 -0.8,3.35 -1.05,3.35 -0.2,0 -0.4,0.35 -0.4,0.75 0,0.55 -0.55,0.75 -2,0.75 -1.1,0 -2,-0.05 -2.05,-0.1 z"
       id="path72"
       style="fill:#d9d9d9" />
    <path
       d="m 18.75,264.2 c 1.9,-1.7 2,-1.7 2.15,-0.7 0.3,1.9 -0.25,2.5 -2.25,2.5 l -1.9,-0.05 z"
       id="path73"
       style="fill:#d9d9d9" />
    <path
       d="m 399.8,231.9 c -0.15,-1.2 -0.5,-4.6 -0.8,-7.65 -1.1,-11.95 -4.75,-32.25 -6.45,-36 -0.3,-0.55 -0.65,-1.55 -0.85,-2.25 -0.15,-0.7 -0.85,-2.45 -1.5,-3.9 -0.65,-1.45 -1.2,-2.75 -1.2,-2.85 0,-0.4 -4.05,-6.95 -4.85,-7.85 -0.7,-0.75 -1,-0.7 -4.3,0.9 -1.95,0.95 -4.2,1.7 -4.95,1.7 -0.9,0 -1.4,0.25 -1.4,0.75 0,0.5 -0.55,0.75 -1.75,0.75 -0.95,0 -1.75,-0.2 -1.75,-0.5 0,-0.25 3.15,-2 7,-3.85 3.85,-1.85 7,-3.45 6.95,-3.6 -0.05,-0.55 -6,-5.15 -8.85,-6.85 -9.5,-5.65 -24.35,-9.15 -50.35,-11.95 -12.65,-1.35 -12.7,-1.7 -0.5,-2.95 41.7,-4.2 57.25,-11 66.25,-28.8 1.95,-3.9 5.15,-13.5 6.45,-19.4 1.05,-4.7 2.65,-15.65 3.55,-24.1 0.7,-6.8 0.9,-7.5 1.75,-7.5 1,0 1.1,0.25 1.7,6.25 4.8,45.3 13.4,59.7 40.4,67.5 8.75,2.55 20.75,4.5 39.6,6.5 3.7,0.4 6.8,0.85 6.95,0.95 0.1,0.15 -0.55,0.35 -1.45,0.5 -3.65,0.55 -21.3,2.3 -23.35,2.3 -1.3,0 -2.05,0.2 -1.85,0.5 0.15,0.3 1.8,0.5 3.65,0.5 4.05,0 5.6,0.4 5.6,1.3 0,0.6 -1.15,0.7 -6.1,0.65 -6.5,-0.05 -10.85,0.6 -19.6,2.9 -8.2,2.15 -18.4,6.6 -20.3,8.9 -0.35,0.4 -0.85,0.75 -1.1,0.75 -0.7,0 -6.3,5.9 -7.15,7.55 -0.45,0.8 -1,1.45 -1.2,1.45 -0.6,0 -3.55,5.9 -3.55,7.1 0,0.5 -0.2,0.9 -0.5,0.9 -0.25,0 -0.5,0.4 -0.5,0.95 0,0.5 -0.45,1.9 -0.95,3.1 -1.05,2.35 -2.95,9.95 -4.25,16.95 -0.95,5.2 -3.3,23.5 -3.3,25.8 0,0.95 -0.2,1.7 -0.45,1.7 -0.25,0 -0.55,0.7 -0.7,1.5 -0.3,1.3 -0.55,1.5 -2.05,1.5 -1.6,0 -1.7,-0.1 -2,-2.1 z"
       id="path74"
       style="fill:#d9d9d9" />
    <path
       d="m 323.45,210.55 c 0.6,-0.8 2.35,-2.65 3.9,-4.1 l 2.9,-2.6 0.15,1.4 c 0.25,1.95 -4.4,6.75 -6.55,6.75 h -1.4 z"
       id="path75"
       style="fill:#d9d9d9" />
    <path
       d="m 477.75,207.65 c -0.85,-7.15 -5.15,-10.85 -13.9,-11.9 l -2.9,-0.35 0.15,-2.1 0.15,-2.05 2.75,-0.4 c 8.9,-1.3 12.8,-4.6 13.75,-11.6 0.55,-4 0.65,-4.25 2.3,-4.25 1.75,0 2.95,1 2.95,2.45 0,0.55 0.5,2.5 1.05,4.3 1.8,5.45 5.6,8.05 13,9.05 l 2.45,0.35 v 2.1 2.1 l -2.35,0.35 c -4,0.55 -7.6,1.95 -9.7,3.7 -2.2,1.9 -3.95,4.9 -3.95,6.75 0,0.7 -0.15,1.95 -0.3,2.8 -0.3,1.45 -0.45,1.55 -2.7,1.55 h -2.4 z"
       id="path76"
       style="fill:#d9d9d9" />
    <path
       d="m 937,196.25 c 0,-2 0.2,-2.75 0.7,-2.75 0.8,0 1.3,1.5 1.3,3.9 0,1.25 -0.2,1.6 -1,1.6 -0.9,0 -1,-0.35 -1,-2.75 z"
       id="path77"
       style="fill:#d9d9d9" />
    <path
       d="m 345.75,190.7 c 1.9,-1.7 2,-1.7 2.15,-0.7 0.3,1.9 -0.25,2.5 -2.25,2.5 l -1.9,-0.05 z"
       id="path78"
       style="fill:#d9d9d9" />
    <path
       d="m 361.5,180.15 c 0,-0.4 4.1,-3.15 4.7,-3.15 0.15,0 0.3,0.55 0.3,1.25 0,0.8 -0.3,1.25 -0.75,1.25 -0.4,0 -0.75,0.25 -0.75,0.5 0,0.3 -0.8,0.5 -1.75,0.5 -0.95,0 -1.75,-0.15 -1.75,-0.35 z"
       id="path79"
       style="fill:#d9d9d9" />
    <path
       d="m 558.85,168 c 1.25,-4.8 2.85,-3.55 1.85,1.45 -0.25,1.2 -0.6,1.55 -1.45,1.55 h -1.15 z"
       id="path80"
       style="fill:#d9d9d9" />
    <path
       d="m 886.5,85 c 0,-2.05 0.4,-1.95 2.45,0.65 0.6,0.75 0.55,0.85 -0.9,0.85 -1.4,0 -1.55,-0.15 -1.55,-1.5 z"
       id="path81"
       style="fill:#d9d9d9" />
    <path
       d="m 876.7,76.3 c -0.15,-0.4 -0.2,-1.2 -0.1,-1.8 0.15,-1.05 0.2,-1.05 1.8,0.4 0.85,0.8 1.6,1.6 1.6,1.75 0,0.7 -3.05,0.35 -3.3,-0.35 z"
       id="path82"
       style="fill:#d9d9d9" />
    <path
       d="m 617.25,72.15 2.5,-2.3 0.15,1.35 c 0.25,1.95 -1.15,3.3 -3.35,3.3 l -1.8,-0.05 z"
       id="path83"
       style="fill:#d9d9d9" />
    <path
       d="M 851.35,56.65 C 851.15,56.5 851,55.7 851,54.9 v -1.4 l 2,1.3 c 1.1,0.75 2,1.55 2,1.75 0,0.5 -3.15,0.6 -3.65,0.1 z"
       id="path84"
       style="fill:#d9d9d9" />
    <path
       d="m 641,54.15 c 0,-0.4 6.6,-4.65 7.2,-4.65 0.15,0 0.3,0.55 0.3,1.25 0,1.3 -1.25,2.25 -2.95,2.25 -0.6,0 -1.05,0.35 -1.05,0.75 0,0.5 -0.55,0.75 -1.75,0.75 -0.95,0 -1.75,-0.15 -1.75,-0.35 z"
       id="path85"
       style="fill:#d9d9d9" />
    <path
       d="m 661.1,42.9 c 0.15,-0.35 0.95,-0.9 1.8,-1.25 1.55,-0.65 1.6,-0.6 1.6,0.6 0,1.1 -0.2,1.25 -1.8,1.25 -1.15,0 -1.7,-0.2 -1.6,-0.6 z"
       id="path86"
       style="fill:#d9d9d9" />
    <path
       d="m 673.6,37.4 c 0.15,-0.35 0.95,-0.9 1.8,-1.25 1.55,-0.65 1.6,-0.6 1.6,0.6 0,1.1 -0.2,1.25 -1.8,1.25 -1.15,0 -1.7,-0.2 -1.6,-0.6 z"
       id="path87"
       style="fill:#d9d9d9" />
    <path
       d="m 689.5,31.8 c 0,-0.65 1.4,-1.3 2.9,-1.3 0.3,0 0.6,0.45 0.6,1 0,0.8 -0.35,1 -1.75,1 -1.15,0 -1.75,-0.25 -1.75,-0.7 z"
       id="path88"
       style="fill:#d9d9d9" />
    <path
       d="m 710.5,26.8 c 0,-0.35 0.5,-0.8 1.15,-1 2.05,-0.55 2.85,-0.35 2.85,0.7 0,0.85 -0.35,1 -2,1 -1.35,0 -2,-0.2 -2,-0.7 z"
       id="path89"
       style="fill:#d9d9d9" />
    <g
       fill="#43b2ff"
       id="g97">
      <path
         d="m 442.25,536.45 c -22.9,-2.5 -43.55,-8.45 -64,-18.45 -29.9,-14.6 -55.3,-36.55 -74.55,-64.35 -1.75,-2.55 -3.2,-4.9 -3.2,-5.2 0,-0.65 932.1,-0.1 935.5,0.55 2.65,0.5 7.3,2.55 8.9,3.95 9.4879,8.90974 8.3663,27.62333 0.85,33.3 l -4,2 -4,2 -112.55,0.25 c -99.05,0.2 -112.65,0.35 -113.45,1 -0.5,0.4 -2.5,2.9 -4.45,5.5 -7.15,9.55 -20.15,21.15 -31.3,27.85 -8.45,5.1 -18.95,9.3 -29.15,11.65 -4.4,1 -5.05,1 -250.25,0.95 -236.35,-0.05 -246.2,-0.1 -254.35,-1 z m 88,-18.15 c 2.4,-1.45 4.1,-3.5 4.75,-5.8 0.6,-2.1 0.65,-6.05 0.2,-22.6 -0.25,-10.7 -0.2,-14.4 0.25,-14.4 0.3,0 0.55,-0.9 0.55,-2.25 0,-2.55 -0.65,-3.15 -3.2,-2.85 -1.65,0.2 -1.7,0.3 -1.95,2.5 -0.1,1.3 0,6.45 0.25,11.5 0.25,5 0.4,11.9 0.3,15.25 -0.15,5.65 -0.25,6.25 -1.4,7.7 -1.85,2.3 -3.65,2.9 -8.75,2.9 -3.6,0 -4.85,-0.2 -6.25,-1 -3.35,-2 -4.4,-6.45 -2.5,-10.7 1.15,-2.5 0.75,-3.55 -1.35,-3.55 -2.8,0 -5.1,9.95 -3.7,16.2 1.45,6.45 7.55,9.6 16.95,8.7 2.55,-0.2 4.3,-0.7 5.85,-1.6 z m 240.5,-1.3 c 0.8,-0.8 1.6,-1.5 1.85,-1.5 0.2,0 1.15,0.7 2.05,1.5 0.95,0.85 1.95,1.5 2.2,1.5 0.6,0 3.65,-3.3 3.65,-3.9 0,-0.8 -2.95,-3.1 -3.95,-3.1 -0.5,0 -1.3,0.45 -1.8,1 -0.5,0.55 -1.25,1 -1.6,1 -0.4,0 -1.3,-0.45 -2,-1 -0.7,-0.55 -1.65,-1 -2.05,-1 -0.95,0 -4.1,2.35 -4.1,3.1 0,0.55 3.45,3.9 4.05,3.9 0.15,0 0.9,-0.65 1.7,-1.5 z m -69,-7.55 c 2.6,-0.75 5.5,-3.7 6.2,-6.35 0.7,-2.5 1.35,-2.7 1.8,-0.45 0.5,2.55 1.3,3.8 3.2,5 1.7,1.05 2.3,1.1 12.55,1.1 10.25,0 10.85,-0.05 13.4,-1.2 3.3,-1.5 6.3,-4.8 7.05,-7.8 0.85,-3.4 0.65,-8.2 -0.4,-10.5 -3.15,-6.7 -11.8,-9.25 -17.95,-5.3 -4.55,2.9 -5.8,7.85 -3.05,12.45 1.6,2.75 1.2,3 -4.15,2.75 -6.45,-0.35 -6.55,-0.55 -6.9,-9.9 l -0.25,-7 H 711 c -2.25,0 -2.25,0 -2.4,1.85 -0.15,1.75 -0.3,1.9 -2,2.15 -6.1,1 -9.7,2.55 -12.8,5.55 -2.1,2 -3,3.8 -3.8,7.45 -1.05,4.75 1.6,9.1 6.3,10.2 2.7,0.6 3.15,0.6 5.45,0 z m -137.6,-1.75 c 3.3,-0.9 3.5,-0.9 7.75,0.05 3.6,0.8 6.85,1 18.6,1.15 15,0.2 19.6,-0.2 24.25,-2 1.35,-0.5 2.85,-1.35 3.25,-1.8 0.4,-0.5 1.15,-1.05 1.65,-1.25 1.1,-0.4 3.7,-4.5 4.35,-6.85 1.55,-5.6 -0.5,-10.95 -5.1,-13.3 -3.45,-1.75 -7.5,-2.1 -10.95,-1 -3.15,1.05 -9.55,5.05 -11.9,7.5 -2.1,2.15 -3.45,1.95 -2.2,-0.35 0.9,-1.7 1.05,-7.55 0.35,-16 l -0.3,-3.9 -1.85,0.15 -1.8,0.15 0.2,12.35 0.15,12.3 -2,2.15 -2,2.15 -5.65,-0.15 c -3.15,-0.05 -5.8,-0.2 -5.9,-0.35 -0.15,-0.1 0.25,-0.55 0.85,-1 0.6,-0.4 1.7,-1.75 2.4,-3 2.5,-4.3 0.8,-8.8 -4.2,-11.1 -3.65,-1.65 -8.15,-2 -11.55,-0.85 -6.72196,2.24065 -9.1887,9.50788 -3.85,14.6 0.7,0.6 1.3,1.2 1.3,1.35 0,0.5 -11,0.35 -12,-0.2 -2.05,-1.1 -2.25,-2.3 -2.5,-15.5 l -0.25,-12.75 -1.7,-0.15 c -0.9,-0.1 -1.9,0.05 -2.2,0.35 -0.29619,4.76181 -2.17965,15.53837 -0.15,28.7 1,6.05 2.6,8.35 6.55,9.4 2.5,0.7 12.7,0.15 16.4,-0.85 z m 93.55,-0.15 c 2.7,-1.7 3.8,-3.7 3.8,-7.1 0,-3.3 -1.55,-6.1 -5.15,-9.25 -2.55,-2.25 -2.7,-2.65 -1.65,-4.35 1.15,-1.8 1.85,-6.75 1.7,-11.85 l -0.15,-4.75 -2.1,-0.15 c -1.5,-0.1 -2.15,0.05 -2.2,0.5 0,0.35 0,2.95 0.05,5.7 0.1,5.2 -0.5,8.7 -1.65,9.65 -0.5,0.4 -1.8,-0.3 -5.45,-3 -4.5,-3.25 -5.05,-3.5 -8.05,-3.8 -2.05,-0.15 -3.35,-0.1 -3.55,0.25 -0.2,0.3 2.65,2.55 6.7,5.35 3.85,2.65 7,5.1 7,5.45 0,0.9 -3.2,3 -9.75,6.4 -3,1.55 -5.5,3.05 -5.45,3.25 0.05,0.2 0.55,2.4 1.2,4.8 l 1.15,4.45 10.8,-0.2 c 10.4,-0.15 10.9,-0.2 12.75,-1.35 z m 14.55,-17.8 v -19 l -1.35,-0.45 c -2.15,-0.75 -4.2,0.15 -3.95,1.7 0.1,0.7 0.3,9.3 0.4,19.15 l 0.15,17.9 2.4,-0.15 2.35,-0.15 z m 95.25,18.7 c 2.6,-0.6 4.35,-2 5.3,-4.3 1.05,-2.45 1.85,-2.1 1.4,0.6 -0.3,2.2 -0.3,2.25 1.4,2.95 2.45,1.05 6.4,1.5 9.65,1.05 3.35,-0.4 5.3,-1.9 6.7,-5.05 0.55,-1.2 1.2,-2.2 1.5,-2.2 0.25,0 0.55,1.05 0.65,2.35 l 0.15,2.35 2.85,0.9 c 1.6,0.45 5.3,1.1 8.25,1.45 9.85,1.05 18,-0.35 22,-3.8 1.15,-0.95 2.2,-1.55 2.35,-1.3 0.2,0.25 0.1,0.55 -0.15,0.65 -1.15,0.4 0.6,2.35 3.3,3.65 2.45,1.15 3.35,1.35 5.9,1.1 5.05,-0.4 7.5,-2.35 8.75,-6.85 0.25,-0.95 0.5,-8.35 0.55,-16.45 0.05,-16.15 0.1,-15.8 -2.95,-15.45 l -1.35,0.15 -0.25,12.75 c -0.25,13.2 -0.45,14.4 -2.5,15.5 -1.25,0.65 -6.65,0.65 -7.35,-0.05 -0.35,-0.35 -0.45,-1.9 -0.3,-4.4 0.45,-6 -1.45,-8.9 -7.15,-11.05 -1.5,-0.55 -3.75,-1 -4.95,-1 -4.95,0 -11.95,4.05 -19.15,11 -4.25,4.1 -5.8,4.8 -7.1,3.25 -0.45,-0.55 -0.55,-1.75 -0.3,-4.15 0.4,-3.9 -0.1,-4.8 -2.5,-4.5 -1.6,0.15 -2.05,1.25 -2.15,5.1 -0.05,2.1 -0.3,2.65 -2,4.35 -1.9,1.95 -2,1.95 -5.75,1.95 -3.45,0 -7.3,-0.9 -7.3,-1.75 0,-0.15 0.25,-1.9 0.55,-3.8 0.65,-4.25 0.35,-5.75 -1.2,-6.05 -2.45,-0.5 -3,0.15 -3.2,3.85 -0.3,5.65 -2.15,7.75 -6.9,7.75 -3.4,0 -4.35,-0.35 -5.5,-1.9 -0.9,-1.25 -1,-2.35 -1.25,-14.1 l -0.25,-12.75 -1.85,-0.15 c -1.45,-0.1 -1.95,0.05 -2.4,0.9 -0.65,1.25 -0.6,21.5 0.1,21.5 0.2,0 0.4,2.1 0.4,4.7 0,5.2 0.65,7.3 2.85,9.4 2.35,2.2 6.55,2.9 11.15,1.85 z m -197.35,-32.3 1.9,-1.8 -1.2,-1.1 c -2.55,-2.4 -3.15,-2.45 -5.35,-0.45 l -2,1.85 1.85,1.65 c 1.05,0.9 2.15,1.65 2.4,1.7 0.3,0 1.4,-0.85 2.4,-1.85 z m 134.55,0.35 1.7,-1.55 1.8,1.6 c 1.6,1.35 1.9,1.5 2.65,0.9 1.3,-1.05 3.15,-2.95 3.15,-3.25 0,-0.45 -3.25,-3.15 -3.8,-3.2 -0.3,0 -1.15,0.45 -1.85,1 -0.7,0.55 -1.7,1 -2.25,1 -0.5,0 -1.35,-0.45 -1.85,-1 -0.5,-0.55 -1.1,-1 -1.35,-1 -0.8,0 -4.4,2.7 -4.4,3.35 0,0.6 3.4,3.65 4.1,3.65 0.2,0 1.15,-0.7 2.1,-1.5 z m 32.1,0.15 c 0.9,-0.8 1.7,-1.8 1.7,-2.25 0,-0.75 -2.85,-3.4 -3.7,-3.4 -0.6,0 -3.8,2.7 -3.8,3.25 0,0.6 3.05,3.75 3.6,3.75 0.25,0 1.25,-0.6 2.2,-1.35 z m 75.6,-0.4 1.85,-1.75 -2.2,-2.05 -2.15,-2.1 -2.1,2.1 -2.05,2.1 1.85,1.7 c 1.05,0.95 2.1,1.75 2.4,1.75 0.3,0 1.35,-0.8 2.4,-1.75 z m -169.15,-2 c 0.6,-1.7 -0.2,-2.25 -3.5,-2.25 -2.65,0 -3.75,-0.6 -3.75,-2.05 0,-1 2.25,-2 4.25,-1.8 1.2,0.1 1.55,-0.1 1.65,-1 0.2,-1.2 -0.7,-1.85 -3.3,-2.3 -4.1,-0.8 -8.05,3.75 -5.05,5.85 1.3,0.9 0.95,1.6 -1.05,2 -1.55,0.3 -2.3,1.3 -1.85,2.45 0.2,0.5 1.65,0.6 6.15,0.5 5.9,-0.15 5.95,-0.15 6.45,-1.4 z"
         id="path90"
         sodipodi:nodetypes="cccscccccccccccccccsscccccsccsccccscssssssssscccccscsccccccsccccccccccccccccccccccccccccccccscccccccccsccccccccccccscscccccccccccccccccccscccccccccccccccsccsccccccsscccscccccssccccccccccccccscssssssccssssccccccccsccsscccccccc" />
      <path
         d="m 699.3,498.45 c -0.45,-0.65 -0.8,-1.65 -0.8,-2.2 0,-3.25 5.1,-6.7 9.4,-6.3 0.4,0.05 0.6,1 0.6,3.05 0,2.55 -0.2,3.2 -1.4,4.55 -1.2,1.35 -1.85,1.65 -4.2,1.85 -2.45,0.2 -2.85,0.1 -3.6,-0.95 z"
         id="path91" />
      <path
         d="m 728.5,496.5 c -1.8,-3.85 -1.6,-6.25 0.65,-8.35 1,-0.9 2.4,-1.75 3.1,-1.95 3.35,-0.85 7.45,1.5 8.05,4.6 0.45,2.4 -0.05,3.95 -2,6.1 -1.6,1.7 -1.9,1.8 -5.15,2 l -3.45,0.2 z"
         id="path92" />
      <path
         d="m 594.4,499.1 c -1.35,-0.1 -2.4,-0.35 -2.4,-0.6 0,-0.7 6.95,-6.85 10.1,-9 4.2,-2.8 7.6,-3.7 10.65,-2.95 3.4,0.85 5.25,2.6 5.25,4.85 0,4.45 -4.1,7 -11.75,7.4 -7.55,0.4 -9.5,0.45 -11.85,0.3 z"
         id="path93" />
      <path
         d="m 563.25,496.3 c -2.65,-2.65 -3.1,-4.05 -2.05,-6.45 1.65,-3.95 6.8,-5 10.55,-2.15 1.6,1.25 1.75,1.55 1.75,3.9 0,2.3 -0.2,2.7 -2.2,4.7 -3.05,3.05 -4.95,3.05 -8.05,0 z"
         id="path94" />
      <path
         d="m 640.7,498.9 c -0.15,-0.2 0.95,-0.95 2.4,-1.7 1.45,-0.75 3.65,-2.1 4.85,-3 1.2,-0.95 2.5,-1.7 2.85,-1.7 1.05,0 4.2,3 4.2,3.95 0,0.5 -0.45,1.3 -1.05,1.85 -0.85,0.8 -1.9,0.9 -7.05,0.95 -3.3,0 -6.1,-0.15 -6.2,-0.35 z"
         id="path95" />
      <path
         d="m 804.15,498.45 c -0.9,-0.25 -1.65,-0.65 -1.65,-0.9 0,-0.95 8.15,-7.7 11.25,-9.3 4.05,-2.15 6.95,-2.3 10.25,-0.6 5.65,2.8 3.85,8.4 -3.25,10.4 -3.8,1.05 -13.55,1.3 -16.6,0.4 z"
         id="path96" />
      <path
         d="m 22.25,298.65 c -2.65,-1.4 -5.85,-4.25 -7.3,-6.55 -3.95,-6.25 -4.6,-14.4 -1.6,-20.75 1.75,-3.65 5.25,-7.5 8.8,-9.55 5,-2.95 -3.15,-2.8 137.95,-2.8 h 129.3 l 2.65,-4.85 c 9.6,-17.9 19.5,-31.25 33.65,-45.55 12.6,-12.8 23.7,-21.5 38.55,-30.45 9.7,-5.8 18.9,-10.1 20.15,-9.35 2.05,1.25 7.55,11.05 8.8,15.7 0.2,0.7 0.55,1.7 0.85,2.25 1.75,3.8 5.35,23.9 6.45,36.25 0.35,3.45 0.75,7.05 1,8 l 0.4,1.75 0.35,-1.6 c 0.2,-0.9 0.6,-1.65 0.9,-1.65 0.3,0 0.35,-0.95 0.15,-2.45 -0.2,-1.35 -0.15,-2.55 0.1,-2.65 0.5,-0.2 2.75,-18.25 2.35,-18.9 -0.15,-0.3 -0.1,-0.5 0.15,-0.5 0.25,0 0.65,-1.05 0.85,-2.35 0.6,-4.45 3.25,-15.3 4.25,-17.55 0.55,-1.2 1,-2.65 1,-3.15 0,-0.55 0.25,-0.95 0.5,-0.95 0.3,0 0.5,-0.4 0.5,-0.9 0,-1.2 2.95,-7.1 3.55,-7.1 0.2,0 0.75,-0.65 1.2,-1.45 0.85,-1.65 6.45,-7.55 7.15,-7.55 0.25,0 0.75,-0.35 1.1,-0.75 1.9,-2.3 12.05,-6.75 20.3,-8.9 10.6,-2.8 15.35,-3.3 26.95,-2.85 5.8,0.25 11.5,0.6 12.75,0.75 25.1,3.55 44.7,9.5 65.35,19.9 2.55,1.3 4.95,2.35 5.35,2.35 0.45,0 0.9,-0.85 1.25,-2.1 4.05,-16.9 8.4,-29 15.35,-42.7 15.55,-30.7 37.85,-56 65.55,-74.25 9.25,-6.1 11.55,-7.45 20.65,-12 20.25,-10.1 37.45,-15.4 61.5,-19 8.8,-1.3 31.25,-1.85 41,-1 22,1.9 40.85,6.6 60.75,15.05 9.4,4 24.7,12.25 28.85,15.55 1,0.8 2,1.45 2.2,1.45 0.55,0 8.35,5.7 13.8,10.1 21.95,17.7 39.85,40 52.5,65.5 8.75,17.7 15.9,41.25 17.9,58.65 0.3,2.75 0.8,6.8 1.1,9 0.8,5.95 0.2,36.75 -0.8,42.25 -1.15,6.25 -1.35,5.8 3.1,6.75 2.1,0.45 7.6,2.05 12.2,3.6 13.3,4.4 25.55,11.1 36.4,19.85 8.05,6.5 20.15,19.7 22,24 0.45,1.15 1.25,2.35 1.7,2.75 0.45,0.35 0.8,0.85 0.8,1.1 0,0.25 -211.5,0.45 -495.35,0.45 C 67.45,299.45 23.6,299.4 22.25,298.65 Z M 369,289.75 c 0,-0.4 0.2,-0.75 0.4,-0.75 0.25,0 0.7,-1.5 1.05,-3.35 2.15,-11.25 5.9,-16.4 13.5,-18.6 3.4,-1 11.85,-2.55 13.9,-2.55 0.65,0 1.15,-0.3 1.15,-0.65 0,-0.45 -1.65,-0.85 -5.3,-1.25 -9.4,-1.15 -16.15,-4.05 -18.9,-8.15 -1.25,-1.9 -3.1,-6.4 -3.55,-8.7 -0.2,-0.8 -0.45,-1.85 -0.6,-2.25 -0.15,-0.4 -0.25,-1.35 -0.2,-2.1 0.05,-0.7 -0.1,-1.45 -0.35,-1.6 -0.3,-0.15 -0.4,-1.2 -0.25,-2.3 0.25,-1.75 0.15,-2 -0.75,-2 -0.9,0 -1.05,0.5 -1.6,5.1 -1,7.95 -3,12.95 -6.55,16.1 -3.6,3.3 -9.25,5.25 -17.45,6.05 -6.65,0.65 -7.45,1.45 -1.95,1.95 7.9,0.8 14.55,2.6 18,4.95 4,2.7 6.65,8.1 7.75,15.85 0.35,2.6 0.65,4.8 0.65,4.9 0.15,0.5 1.05,-0.05 1.05,-0.65 z m 112.7,-82.3 c 0.15,-0.85 0.3,-2.1 0.3,-2.8 0,-1.85 1.75,-4.85 3.95,-6.75 2.1,-1.75 5.7,-3.15 9.7,-3.7 3.1,-0.45 3.05,-1.5 -0.1,-1.9 -7.2,-0.95 -11.2,-3.65 -12.8,-8.65 -0.55,-1.6 -1.15,-3.15 -1.35,-3.45 -0.25,-0.3 -0.3,-0.95 -0.1,-1.35 0.15,-0.45 -0.05,-1.15 -0.45,-1.6 -0.9,-0.9 -1.05,-0.6 -1.6,3.5 -0.95,6.95 -4.85,10.3 -13.7,11.6 -3.7,0.55 -3.8,1.45 -0.2,1.9 8.75,1.05 13.05,4.75 13.9,11.9 0.3,2.25 0.55,2.85 1.25,2.85 0.6,0 1,-0.5 1.2,-1.55 z"
         id="path97" />
    </g>
    <path
       d="m 602,594.15 c -5.05,-0.75 -7.6,-2.5 -8.75,-5.85 -0.75,-2.1 -0.45,-2.3 3.8,-2.3 2.2,0 2.95,0.2 2.95,0.7 0,0.4 0.7,1.3 1.55,2 3,2.5 7.45,1.25 7.45,-2.1 0,-2.2 -1.35,-3.05 -5.75,-3.6 -7.1,-0.9 -9.75,-3.05 -9.75,-7.8 0,-2 0.25,-2.55 1.9,-4.2 2.2,-2.2 4.6,-3 9.1,-3 3.6,0 6.55,1.1 8.35,3.05 1.2,1.35 2.75,5.15 2.3,5.65 -0.2,0.15 -1.75,0.3 -3.5,0.3 -2.75,0 -3.15,-0.1 -3.15,-0.95 0,-2.75 -4.65,-4.55 -7.25,-2.85 -1,0.65 -1.25,1.25 -1.25,2.85 0,1.8 0.15,2.05 1.8,2.75 0.95,0.4 3.15,0.9 4.9,1.05 5.65,0.5 8.55,2.85 8.55,6.9 0,2.85 -1.3,4.65 -4.75,6.4 -2.6,1.3 -4.85,1.6 -8.5,1 z"
       id="path98"
       style="fill:#000000" />
    <path
       d="m 683.15,593.8 c -3.2,-1 -4.9,-2.5 -6.15,-5.4 -2.5,-5.8 -1.6,-13.8 1.95,-17.35 2.2,-2.2 4.8,-3.05 9.1,-3.05 3.55,0 6.5,1.1 8.3,3.05 3.85,4.2 4.15,15.15 0.55,19.7 -2.5,3.2 -8.75,4.6 -13.75,3.05 z m 8.35,-5.9 c 1.95,-3.25 1.9,-9.95 -0.15,-12.95 -1.35,-2 -3.3,-2.6 -5.75,-1.8 -2.55,0.85 -3.3,2.6 -3.2,7.7 0.05,6.15 1.75,8.65 5.95,8.65 1.9,0 2.3,-0.2 3.15,-1.6 z"
       id="path99"
       style="fill:#000000" />
    <path
       d="m 519.5,585.65 c 0,-4.65 -0.15,-9.25 -0.3,-10.25 l -0.3,-1.85 -3.1,-0.15 -3.05,-0.15 -0.15,-2.35 -0.15,-2.4 h 10.2 10.25 l 0.2,2.05 c 0.1,1.1 -0.05,2.15 -0.35,2.35 -0.25,0.15 -1.85,0.3 -3.5,0.35 h -3 L 526.1,583.65 526,594 h -3.25 -3.25 z"
       id="path100"
       style="fill:#000000" />
    <path
       d="M 535.5,581.25 V 568.5 l 2.5,-0.05 c 1.4,-0.05 2.8,-0.1 3.15,-0.15 0.4,-0.05 0.65,1.4 0.85,4.95 l 0.25,5 4.65,0.15 4.6,0.15 v -5.05 -5 h 3.25 3.25 v 12.25 c 0,6.75 0.05,12.4 0.15,12.65 0.05,0.2 -1.4,0.4 -3.25,0.5 l -3.35,0.15 -0.15,-5.65 -0.15,-5.65 -3.75,-0.05 c -5.65,0 -5.6,-0.05 -5.45,5.95 l 0.15,5.1 -3.35,0.15 -3.35,0.15 z"
       id="path101"
       style="fill:#000000" />
    <path
       d="M 562.5,581.25 V 568.5 h 10 10 v 2.25 2.2 l -6.6,0.15 -6.65,0.15 -0.15,2.9 -0.15,2.85 h 6.3 6.25 v 2 1.95 l -6.1,0.15 -6.15,0.15 -0.15,2.4 c -0.25,3.7 0.05,3.85 7.2,3.85 h 6.2 v 2.25 2.25 h -10 -10 z"
       id="path102"
       style="fill:#000000" />
    <path
       d="M 619.5,581.25 V 568.5 l 2.5,-0.05 c 1.4,-0.05 2.8,-0.1 3.15,-0.15 0.4,-0.05 0.65,1.45 0.85,5.2 0.35,7.05 0.95,7.1 5.7,0.15 l 3.5,-5.15 h 3.2 c 3.75,0 3.75,-0.2 0.05,5.35 -3.35,5.05 -4.4,6.15 -5.7,6.15 -1.8,0 -1.9,0.7 -0.15,1.25 1.3,0.45 2.55,1.85 5.75,6.3 2.25,3.15 4.1,5.85 4.1,6.1 0.05,0.2 -1.5,0.35 -3.45,0.35 h -3.5 l -3.55,-5.5 C 629,583.95 628.2,583 627.15,583 h -1.2 l 0.1,5.4 0.1,5.35 -3.35,0.15 -3.3,0.15 z"
       id="path103"
       style="fill:#000000" />
    <path
       d="m 651.5,589.85 v -4.15 l -1.6,-0.75 c -1.55,-0.65 -1.75,-1.1 -3.95,-8.2 -1.3,-4.1 -2.2,-7.65 -2.1,-7.85 0.1,-0.25 1.75,-0.4 3.6,-0.4 h 3.45 l 1.05,4.4 c 1.9,7.65 2.05,8.1 2.8,8.1 0.95,0 1.2,-0.55 2.25,-4.65 0.5,-2 1,-3.95 1.15,-4.35 0.15,-0.4 0.4,-1.35 0.55,-2.1 0.3,-1.35 0.4,-1.4 3.8,-1.4 1.95,0 3.5,0.2 3.5,0.45 0,0.7 -4,13.7 -4.6,14.9 -0.3,0.6 -1,1.15 -1.6,1.25 -0.95,0.15 -1.05,0.5 -1.2,4.55 L 658.45,594 H 655 651.5 Z"
       id="path104"
       style="fill:#000000" />
    <path
       d="M 702.5,581.25 V 568.5 h 9.75 9.75 v 2.25 2.2 l -6.35,0.15 -6.4,0.15 -0.15,2.7 c -0.1,1.5 0.1,2.95 0.4,3.25 0.35,0.35 2.5,0.45 6,0.35 l 5.5,-0.15 v 2.3 2.25 l -5.85,0.15 -5.9,0.15 -0.15,4.9 -0.15,4.85 h -3.2 -3.25 z"
       id="path105"
       style="fill:#000000" />
    <path
       d="M 733.5,581.25 V 568.5 h 3.25 3.25 v 12.25 c 0,6.75 0.05,12.4 0.15,12.65 0.05,0.2 -1.4,0.4 -3.25,0.5 l -3.4,0.15 z"
       id="path106"
       style="fill:#000000" />
    <path
       d="m 749.5,583.75 v -10.2 l -3.35,-0.15 -3.4,-0.15 -0.15,-2.35 -0.15,-2.4 h 10.2 10.2 l 0.3,1.85 c 0.2,1.05 0.1,2.1 -0.15,2.35 -0.3,0.3 -1.9,0.5 -3.65,0.55 h -3.1 L 756.1,583.65 756,594 h -3.25 -3.25 z"
       id="path107"
       style="fill:#000000" />
    <path
       d="M 765.5,581.25 V 568.5 h 3.25 3.2 l 0.15,4.9 0.15,4.85 4.65,0.15 4.6,0.15 v -5.05 -5 h 3.25 3.25 v 12.25 c 0,6.75 0.05,12.4 0.15,12.65 0.05,0.2 -1.4,0.4 -3.25,0.5 l -3.4,0.15 v -5.45 c 0,-4.1 -0.15,-5.55 -0.65,-5.75 -0.75,-0.25 -7.15,0.05 -8.25,0.45 -0.5,0.15 -0.65,1.4 -0.55,5.3 l 0.15,5.15 -3.35,0.15 -3.35,0.15 z"
       id="path108"
       style="fill:#000000" />
    <path
       d="M 792.55,581.25 792.5,568.5 h 8.55 c 7.6,0 8.7,0.1 10.5,1.05 2.1,1.05 3.45,3.25 3.45,5.7 0,3.4 -3,6.75 -6.1,6.75 -0.8,0 -1.4,0.25 -1.4,0.5 0,0.3 0.6,0.5 1.3,0.5 1.8,0 4.4,1.7 5.15,3.3 0.85,1.85 2,7.05 1.65,7.4 -0.15,0.15 -1.65,0.3 -3.4,0.3 h -3.1 l -0.6,-3.55 c -0.35,-2.05 -1,-3.95 -1.5,-4.45 -1.15,-1.15 -6.25,-1.8 -7.3,-1 -0.5,0.45 -0.7,1.75 -0.7,4.8 v 4.2 h -3.25 -3.2 z m 14.8,-2.05 c 1,-1 1.2,-1.55 0.95,-2.85 -0.55,-2.8 -1.55,-3.4 -5.5,-3.25 l -3.55,0.15 -0.15,2.4 c -0.1,1.35 -0.05,3 0.1,3.65 0.3,1.1 0.55,1.2 3.6,1.2 2.8,0 3.4,-0.15 4.55,-1.3 z"
       id="path109"
       style="fill:#000000" />
    <path
       d="m 817.75,593.15 c 0.15,-0.5 0.85,-2.9 1.55,-5.4 3.35,-12.75 5.1,-18.8 5.4,-19.15 0.2,-0.2 2.35,-0.45 4.8,-0.5 4.45,-0.2 6.5,0.3 6.5,1.6 0,0.35 1.45,5.85 3.25,12.25 1.8,6.4 3.25,11.75 3.25,11.85 0,0.15 -1.5,0.2 -3.35,0.1 l -3.4,-0.15 -0.35,-2.2 c -0.5,-3.05 -1.1,-3.55 -4.15,-3.55 -5,0 -5.55,0.3 -6.35,3.2 l -0.75,2.55 -3.4,0.15 c -3.1,0.15 -3.35,0.05 -3,-0.75 z m 15.45,-9.2 c -0.15,-1.2 -2.65,-10.05 -2.95,-10.35 -0.6,-0.6 -1.2,0.85 -2.2,5.3 -0.55,2.6 -1.05,4.85 -1.05,5.1 0,0.25 1.2,0.55 2.65,0.65 3.3,0.2 3.6,0.15 3.55,-0.7 z"
       id="path110"
       style="fill:#000000" />
    <path
       d="m 440,434.85 c 0,-3.35 0.3,-3.55 5.65,-4.2 l 3.1,-0.4 -1.8,-1.15 c -2.2,-1.35 -3.15,-3.45 -2.8,-6.15 0.3,-2.45 1.3,-3.95 3.65,-5.75 2.2,-1.7 6.75,-2.2 11,-1.25 3.6,0.85 4,1.3 3.8,4.75 -0.2,2.7 -0.25,2.85 -1.25,2.6 -7.05,-2 -11.15,-0.6 -10.15,3.45 0.6,2.4 2.9,3.25 8.8,3.25 2.9,0 5.5,0.2 5.8,0.4 0.45,0.25 0.4,1.15 -0.2,3.5 -0.55,2.45 -0.95,3.15 -1.8,3.35 -0.6,0.1 -6.15,0.3 -12.45,0.35 L 440,437.75 Z"
       id="path111"
       style="fill:#000000" />
    <path
       d="m 346.1,421 0.15,-9.7 3.5,-0.6 c 5.8,-0.95 9.75,-3.4 11.9,-7.45 1,-1.75 1.1,-2.75 1.1,-8.75 -0.05,-9.25 -2,-18.9 -5.75,-28.3 -1.05,-2.55 -1.75,-4.8 -1.6,-4.95 0.15,-0.15 2.25,-0.25 4.7,-0.25 h 4.45 l 1.3,2.9 c 2.3,5.25 3.7,9.3 5.15,15.05 0.9,3.55 1.8,5.9 2.35,6.35 2.1,1.55 5.55,2.35 11.5,2.55 5.9,0.25 6.25,0.2 8.85,-1.05 6.85,-3.35 7.65,-13 2.25,-26.7 -0.8,-2 -1.45,-3.85 -1.45,-4.15 0,-0.3 1.8,-0.45 4.85,-0.35 l 4.85,0.15 1.15,2.95 c 4,10.35 5.6,23.35 3.95,31.4 -1.4,6.45 -5,12 -9.65,14.75 -6.3,3.65 -16.7,4.15 -22.85,1.05 -1.05,-0.55 -2.1,-0.8 -2.3,-0.55 -0.25,0.2 -0.65,2.05 -0.95,4 -1.9,12.6 -10.15,20.05 -23.1,21 l -4.45,0.3 z"
       id="path112"
       style="fill:#000000" />
    <path
       d="m 822.1,420.9 0.15,-9.6 3.5,-0.6 c 5.8,-0.95 9.75,-3.45 11.9,-7.45 0.95,-1.75 1.1,-2.8 1.1,-8.5 -0.05,-9.5 -2.05,-19.6 -5.7,-28.55 -1.05,-2.55 -1.8,-4.8 -1.65,-4.95 0.15,-0.15 2.25,-0.25 4.7,-0.25 h 4.45 l 1.3,2.9 c 2.65,5.95 4.8,12.65 6.35,19.7 0.4,1.65 2.8,3 6.8,3.85 1.75,0.35 10.7,0.6 24.75,0.7 24.45,0.1 25.55,0 28.5,-2.95 1.9,-1.9 2.3,-3.35 1.7,-6.55 -1.1,-5.8 -3.75,-7.15 -23.7,-12.1 l -15.5,-3.8 v -5 -4.95 l 7.75,-5.5 c 4.25,-3 11.55,-8.1 16.2,-11.4 l 8.4,-5.9 h 11.45 c 6.3,0 11.45,0.15 11.45,0.4 0,0.2 -6.05,3.8 -13.4,8.05 -33.9,19.6 -33.8,19.55 -33.45,19.85 0.1,0.15 5.05,1.35 10.9,2.7 5.9,1.4 12.75,3.1 15.2,3.8 13.35,3.9 18.2,8.75 19.05,19.05 0.75,9.4 -3.25,17.1 -10.8,20.8 -5.65,2.75 -7.85,3 -31.25,3.2 -22.45,0.25 -25.45,0.05 -29.45,-1.9 -1.1,-0.55 -2.15,-0.8 -2.4,-0.55 -0.2,0.2 -0.6,1.95 -0.85,3.85 -0.9,6.3 -2.75,10.3 -6.5,14.1 -4.15,4.2 -11.8,7.15 -18.6,7.15 H 822 Z"
       id="path113"
       style="fill:#000000" />
    <path
       d="m 930.1,421 0.15,-9.7 3.5,-0.6 c 5.85,-0.95 9.8,-3.45 11.85,-7.45 3,-5.75 0.7,-23.95 -4.6,-36.95 -1.05,-2.6 -1.8,-4.85 -1.6,-5 0.15,-0.15 2.25,-0.3 4.65,-0.3 h 4.4 l 0.8,1.55 c 1.65,3.1 4.35,10.9 5.8,16.4 0.9,3.4 1.8,5.95 2.35,6.35 3,2.35 13.45,3.55 16.8,1.95 2.65,-1.25 5.6,-4.7 8.35,-9.75 5.45,-10.05 9.5,-15.05 14.45,-17.75 2.4,-1.25 3.4,-1.5 7.5,-1.65 l 4.75,-0.2 3,2 c 1.65,1.1 3.7,2.75 4.6,3.65 4.2,4.45 7.35,12.3 8.95,22.3 l 0.9,5.65 -1.7,4.1 c -0.95,2.3 -2.6,6.3 -3.75,8.9 l -2.05,4.75 -4.95,-0.1 c -9.1,-0.25 -20.35,-2.2 -27.25,-4.8 -2.75,-1.05 -3.25,-1.45 -3.4,-2.55 -0.25,-1.8 -0.75,-1.65 -2.3,0.75 -1.95,2.95 -5.2,4.8 -9.1,5.25 -3.75,0.35 -8.45,-0.4 -11.35,-1.9 -1.1,-0.55 -2.15,-0.8 -2.35,-0.55 -0.25,0.2 -0.65,2.05 -0.95,4 -1.9,12.6 -10.15,20.05 -23.1,21 l -4.45,0.3 z m 85.5,-36 c -0.1022,-1.91641 -1.5472,-23.42844 -14.75,-19.3 -2.55,1.05 -5.85,5.2 -9.1,11.35 -1.65,3.15 -3.05,5.95 -3.15,6.25 -0.4,1.45 12.95,4.3 22.9,4.85 4.5,0.3 4.25,0.45 4.1,-3.15 z"
       id="path114"
       sodipodi:nodetypes="ccccccscccccccccsccccccccccccccccccccccc"
       style="fill:#000000" />
    <path
       d="m 269,404.05 c 0,-7.05 0,-7.1 1.25,-7.55 1.25,-0.45 7.65,-1.7 11.9,-2.25 l 2.45,-0.35 -2.75,-2.65 c -4,-3.9 -5.35,-6.95 -5.35,-12.05 0,-4.7 1,-7.55 3.9,-11.15 6,-7.4 17.15,-9.55 29.25,-5.6 l 4.85,1.6 v 6.05 c 0,6.9 0.8,6.3 -6.2,4.45 -5.6,-1.5 -11.9,-1.45 -14.8,0.1 -4.15,2.2 -6.3,6.5 -5.3,10.6 0.55,2.25 4.15,5.6 7.2,6.8 2.5,0.95 4.1,1.1 13.35,1.3 5.8,0.15 10.65,0.4 10.9,0.6 0.35,0.35 -2.55,12.75 -3.3,13.95 -0.3,0.45 -4.4,0.6 -17.5,0.6 -15.8,0 -19.05,0.2 -24.6,1.45 -1.1,0.25 -2.75,0.6 -3.6,0.8 l -1.65,0.4 z"
       id="path115"
       style="fill:#000000" />
    <path
       d="m 543,404 c 0,-6.9 0,-7.05 1.2,-7.45 1.3,-0.5 8.25,-1.85 11.95,-2.3 l 2.45,-0.35 -2.85,-2.75 c -3.9,-3.85 -5.25,-6.8 -5.25,-11.8 0,-6.5 2.9,-11.7 8.6,-15.35 6.25,-4.1 15.05,-4.65 24.55,-1.55 l 4.85,1.6 v 6.05 c 0,6.9 0.8,6.3 -6.2,4.45 -4.6,-1.2 -11.45,-1.4 -13.95,-0.4 -7.35,3.1 -8.6,11.75 -2.3,16.15 3.35,2.3 5.9,2.75 17.1,3.05 5.7,0.15 10.5,0.45 10.65,0.7 0.3,0.5 -2.8,13 -3.45,13.85 -0.35,0.45 -4.45,0.6 -17.4,0.6 -16.65,0 -23.25,0.5 -27.3,2.05 -2.65,1 -2.65,1 -2.65,-6.55 z"
       id="path116"
       style="fill:#000000" />
    <path
       d="m 664,407.95 c -8.4,-0.75 -15.4,-2.9 -18.8,-5.8 -1.45,-1.2 -3.5,-4.6 -4.15,-6.7 l -0.45,-1.7 -0.05,2 c 0,1.1 0.3,3.05 0.7,4.35 l 0.7,2.35 -1.8,1.5 c -5.05,4.2 -17.8,5.25 -25,2.05 -3.2,-1.4 -6.35,-4.6 -7.85,-8 -2.65,-5.85 -2.8,-8.05 -2.8,-39.3 v -28.75 l 4.5,0.15 4.5,0.15 0.1,24.75 0.15,24.8 1.25,2.45 c 1,1.9 1.95,2.9 4,4.15 2.6,1.55 2.95,1.6 7.8,1.6 3.7,0 6,-0.3 8.25,-1 5.4,-1.65 6.1,-2.3 7.4,-6.75 1.4,-4.9 4.25,-10.55 7.25,-14.6 6,-7.95 14.5,-10.7 21.75,-7.1 4.15,2.05 6.3,4.9 10.7,13.95 4.5,9.3 6.5,12.3 9.3,14.05 2.05,1.35 2.6,1.45 7,1.45 3.95,0 5.25,-0.2 7.3,-1.2 5.1,-2.35 7.25,-7.2 7.25,-16.4 v -5.95 l 4.4,0.15 4.35,0.15 0.35,3.5 c 0.2,1.95 0.15,5.8 -0.2,8.75 -0.85,8.3 -1.05,7.55 2.35,9.25 2.9,1.45 3.25,1.5 9.75,1.5 7.95,0 9.6,-0.6 12.5,-4.4 2.4,-3.15 3,-5.75 3,-12.9 v -6 l 4.4,0.15 4.35,0.15 0.4,3.5 c 0.25,2.15 0.2,5.55 -0.15,8.75 -0.95,8.4 -1.15,7.55 2.25,9.25 2.75,1.4 3.5,1.5 9,1.65 5.45,0.15 6.2,0.05 8.25,-1 7.1,-3.65 7.75,-13.7 1.8,-27.8 -0.7,-1.7 -1.3,-3.2 -1.3,-3.35 0,-0.15 2.25,-0.25 4.95,-0.25 h 4.95 l 1.5,4.15 c 3.5,9.65 5.05,20.05 4.1,27.15 -1.55,11.7 -6.15,17.55 -16.1,20.4 -6.9,1.95 -18,0.1 -22.2,-3.8 -0.9,-0.8 -1,-1.25 -0.65,-2.8 0.9,-3.85 0.1,-6.4 -1.05,-3.35 -3.15,8.25 -14.35,12.5 -26.25,10 -3.95,-0.85 -8.55,-2.9 -9.2,-4.15 -0.25,-0.5 -0.2,-2.4 0.2,-4.7 0.3,-2.1 0.45,-4.05 0.3,-4.35 -0.2,-0.25 -0.85,0.8 -1.45,2.45 -1.55,3.95 -4.45,7.1 -8.25,8.95 -5.65,2.8 -14.3,3.2 -19.35,1 -1.25,-0.55 -3.75,-2.5 -5.6,-4.3 -1.85,-1.85 -3.45,-3.25 -3.6,-3.1 -0.1,0.1 -0.5,2 -0.8,4.2 -0.35,2.2 -0.7,4.3 -0.8,4.65 -0.2,0.7 -7.4,0.75 -15.2,0.05 z m 12.5,-19.15 c 0,-1.25 -4.45,-14 -6,-17.15 -3.25,-6.55 -7.7,-7.5 -12.6,-2.6 -2.85,2.85 -6.75,10.45 -7,13.7 -0.15,1.95 -0.1,2 2.6,3.35 3.45,1.7 10.65,2.85 20.9,3.3 1.5,0.05 2.1,-0.1 2.1,-0.6 z"
       id="path117"
       style="fill:#000000" />
    <path
       d="m 331.8,403.4 c -0.3,-4.75 -1.05,-52.05 -1.05,-65.65 v -7.5 h 5.25 5.25 l 0.15,38.9 0.1,38.85 h -4.7 -4.7 z"
       id="path118"
       style="fill:#000000" />
    <path
       d="m 429.8,407.4 c -1.1,-3.6 -4.9,-18.95 -4.75,-19.1 0.1,-0.1 4.15,-2.1 8.95,-4.4 8.7,-4.2 16.9,-9.15 20.75,-12.6 1.65,-1.45 1.85,-1.85 1.25,-2.25 -0.4,-0.25 -7.25,-4.95 -15.2,-10.35 -11.3,-7.8 -14.2,-10 -13.5,-10.25 0.55,-0.2 3.75,-0.4 7.2,-0.4 l 6.25,-0.05 10.15,7.3 c 5.6,4.05 10.5,7.2 10.95,7.1 0.5,-0.1 1.4,-1.45 2.1,-3.15 1.3,-2.95 1.3,-3.2 1.35,-16.25 l 0.1,-13.25 h 4.4 4.45 l 0.15,12.4 c 0.15,13.95 -0.2,16.1 -3.65,22.55 l -1.7,3.2 2.65,2.05 c 3.7,2.85 8.85,8.35 10.5,11.15 5.6,9.65 2.05,21.3 -7.65,24.95 -4.5,1.7 -7.8,1.95 -26.7,1.95 -13.9,0 -17.9,-0.15 -18.05,-0.6 z m 35.65,-19.35 c 2.55,-0.5 4.55,-1.85 5.45,-3.7 0.55,-1.15 0.5,-1.6 -0.35,-3.25 -0.9,-1.75 -5.25,-5.8 -6.95,-6.45 -0.35,-0.15 -1.55,0.5 -2.75,1.45 -3.2,2.65 -10.1,7.05 -14.7,9.35 -2.25,1.1 -4.2,2.25 -4.4,2.55 -0.4,0.6 20.45,0.65 23.7,0.05 z"
       id="path119"
       style="fill:#000000" />
    <path
       d="m 495.8,402.9 c -0.3,-5.35 -1.05,-52.05 -1.05,-65.15 v -7.5 h 5.25 5.25 l 0.15,38.9 0.1,38.85 h -4.7 -4.7 z"
       id="path120"
       style="fill:#000000" />
    <path
       d="m 831.3,351.3 c -2.15,-2 -3.85,-3.9 -3.75,-4.2 0.1,-0.3 1.95,-2.15 4.1,-4.1 l 3.9,-3.55 1.85,1.5 c 1,0.8 3,2.6 4.35,4.05 l 2.5,2.55 -4,3.7 c -2.2,2.05 -4.2,3.7 -4.5,3.7 -0.25,0 -2.25,-1.65 -4.45,-3.65 z"
       id="path121"
       style="fill:#000000" />
    <path
       d="m 387.55,347.75 c -2.25,-2.15 -4.05,-4.3 -4.05,-4.7 0,-0.85 7.4,-8.05 8.25,-8.05 0.3,0 2.1,1.6 4,3.5 1.9,1.95 3.7,3.5 3.95,3.5 0.3,0 2.15,-1.6 4.1,-3.55 2.7,-2.65 3.8,-3.5 4.5,-3.25 0.55,0.15 2.65,2 4.7,4.05 l 3.75,3.8 -4.4,4.3 -4.4,4.35 -3.85,-3.85 c -2.15,-2.1 -4.1,-3.85 -4.35,-3.85 -0.25,0 -2.2,1.75 -4.35,3.85 l -3.85,3.8 z"
       id="path122"
       style="fill:#000000" />
    <path
       d="m 396.5,332.25 -2.7,-2.75 2.7,-2.75 c 1.5,-1.5 2.9,-2.75 3.15,-2.75 0.25,0 1.7,1.25 3.25,2.75 l 2.85,2.7 -2.75,2.8 c -1.5,1.5 -2.95,2.75 -3.25,2.75 -0.3,0 -1.75,-1.25 -3.25,-2.75 z"
       id="path123"
       style="fill:#000000" />
  </g>
</svg>
